<svg version="1.1" xmlns="http://www.w3.org/2000/svg" xmlns:xlink="http://www.w3.org/1999/xlink" width="48" height="48"><defs><linearGradient x1="10.52162" y1="8.44322" x2="71.25581" y2="73.33421" gradientUnits="userSpaceOnUse" id="color-1"><stop offset="0" stop-color="#000000" stop-opacity="0.15"></stop><stop offset="1" stop-color="#000000" stop-opacity="0"></stop></linearGradient><filter id="dropshadow-base"><feColorMatrix type="matrix" values="0 0 0 0 0  0 0 0 0 0  0 0 0 0 0  0 0 0 .8 0"></feColorMatrix> <feOffset dx="0" dy="1"></feOffset> <feGaussianBlur stdDeviation="1"></feGaussianBlur> <feComposite in="SourceGraphic"></feComposite></filter><filter id="dropshadow-banner" x="-10%" y="-10%" width="120%" height="130%"><feColorMatrix type="matrix" values="0 0 0 0 0  0 0 0 0 0  0 0 0 0 0  0 0 0 .4 0"></feColorMatrix> <feOffset dx="0" dy="1"></feOffset> <feGaussianBlur stdDeviation="0.5"></feGaussianBlur> <feComposite in="SourceGraphic"></feComposite></filter></defs><g fill="none" fill-rule="nonzero" stroke="none" stroke-width="none" stroke-linecap="butt" stroke-linejoin="miter" stroke-miterlimit="10" stroke-dasharray="" stroke-dashoffset="0" font-family="none" font-weight="none" font-size="none" text-anchor="none" style="mix-blend-mode: normal"><path d="M2,24c0,-12.15026 9.84974,-22 22,-22c12.15026,0 22,9.84974 22,22c0,12.15026 -9.84974,22 -22,22c-12.15026,0 -22,-9.84974 -22,-22z" id="base 1 5" fill="#2e9f27" stroke-width="1"></path><path d="M37.47143,16.22161l8.51643,8.51643c-0.38117,11.56358 -9.68624,20.86865 -21.24982,21.24982l-14.21642,-14.21642c0.00695,-2.8778 1.49451,-5.67913 4.16377,-7.2223c0.15353,-0.08773 0.30922,-0.16897 0.46621,-0.24458l-2.1879,-2.1879c-1.57927,-1.57927 -2.43681,-3.71863 -2.44209,-5.90201c2.49548,-1.43194 5.66522,-1.54317 8.33448,0c0.38926,0.22938 0.74377,0.48659 1.08439,0.75768c-0.06951,-0.43097 -0.11122,-0.86194 -0.11122,-1.31377c0,-3.08633 1.6822,-5.77645 4.17073,-7.21534c0.63393,0.36654 1.21553,0.81428 1.73033,1.32908l5.57414,5.57414c2.10768,-0.52038 4.32166,-0.18368 6.16696,0.87517z" fill="url(#color-1)" stroke-width="1"></path><path d="M33.30765,24.5561c-0.38927,-0.22244 -0.79244,-0.40317 -1.19561,-0.5561c0.40317,-0.15293 0.80634,-0.33366 1.19561,-0.5561c2.66926,-1.54317 4.15682,-4.3445 4.16377,-7.22229c-2.49548,-1.43195 -5.66523,-1.54317 -8.33449,0c-0.38927,0.22244 -0.74378,0.47963 -1.08439,0.75768c0.06951,-0.43793 0.11817,-0.8689 0.11817,-1.32073c0,-3.08633 -1.68219,-5.77645 -4.17072,-7.21534c-2.48853,1.4389 -4.17072,4.12901 -4.17072,7.21534c0,0.45183 0.04171,0.8828 0.11122,1.31378c-0.34061,-0.2711 -0.69512,-0.52829 -1.08439,-0.75768c-2.66926,-1.54317 -5.83901,-1.43195 -8.33449,0c0.00695,2.8778 1.49451,5.67913 4.16377,7.22229c0.38927,0.22244 0.79244,0.40317 1.19561,0.5561c-0.40317,0.15293 -0.80634,0.33366 -1.19561,0.5561c-2.66926,1.54317 -4.15682,4.3445 -4.16377,7.22229c2.49548,1.43195 5.66523,1.54317 8.33449,0c0.38927,-0.22244 0.74378,-0.47963 1.08439,-0.75768c-0.06256,0.44488 -0.11122,0.87585 -0.11122,1.32768c0,3.08633 1.68219,5.77645 4.17072,7.21534c2.48853,-1.44585 4.17072,-4.12901 4.17072,-7.21534c0,-0.45183 -0.04866,-0.8828 -0.11122,-1.31378c0.34061,0.2711 0.69512,0.52829 1.08439,0.75768c2.66926,1.54317 5.83901,1.43195 8.33449,0c-0.00695,-2.88475 -1.49451,-5.68608 -4.17072,-7.22925zM24,29.56096c-3.07243,0 -5.56096,-2.48853 -5.56096,-5.56096c0,-3.07243 2.48853,-5.56096 5.56096,-5.56096c3.07243,0 5.56096,2.48853 5.56096,5.56096c0,3.07243 -2.48853,5.56096 -5.56096,5.56096z" fill="none" stroke-width="0"></path><path d="M37.47837,31.78534c-2.49548,1.43195 -5.66523,1.54317 -8.33449,0c-0.38927,-0.22939 -0.74378,-0.48658 -1.08439,-0.75768c0.06256,0.43097 0.11122,0.86195 0.11122,1.31378c0,3.08633 -1.68219,5.76949 -4.17072,7.21534c-2.48853,-1.4389 -4.17072,-4.12901 -4.17072,-7.21534c0,-0.45183 0.04866,-0.8828 0.11122,-1.32768c-0.34061,0.27805 -0.69512,0.53524 -1.08439,0.75768c-2.66926,1.54317 -5.83901,1.43195 -8.33449,0c0.00695,-2.8778 1.49451,-5.67913 4.16377,-7.22229c0.38927,-0.22244 0.79244,-0.40317 1.19561,-0.5561c-0.40317,-0.15293 -0.80634,-0.33366 -1.19561,-0.5561c-2.66926,-1.54317 -4.15682,-4.3445 -4.16377,-7.22229c2.49548,-1.43195 5.66523,-1.54317 8.33449,0c0.38927,0.22939 0.74378,0.48658 1.08439,0.75768c-0.06951,-0.43097 -0.11122,-0.86195 -0.11122,-1.31378c0,-3.08633 1.68219,-5.77645 4.17072,-7.21534c2.48853,1.4389 4.17072,4.12901 4.17072,7.21534c0,0.45183 -0.04866,0.8828 -0.11817,1.32073c0.34061,-0.27805 0.69512,-0.53524 1.08439,-0.75768c2.66926,-1.54317 5.83901,-1.43195 8.33449,0c-0.00695,2.8778 -1.49451,5.67913 -4.16377,7.22229c-0.38927,0.22244 -0.79244,0.40317 -1.19561,0.5561c0.40317,0.15293 0.80634,0.33366 1.19561,0.5561c2.67621,1.54317 4.16377,4.3445 4.17072,7.22925zM29.56096,24c0,-3.07243 -2.48853,-5.56096 -5.56096,-5.56096c-3.07243,0 -5.56096,2.48853 -5.56096,5.56096c0,3.07243 2.48853,5.56096 5.56096,5.56096c3.07243,0 5.56096,-2.48853 5.56096,-5.56096z" fill="#ffffff" stroke-width="0"></path><path d="M2,24c0,-12.15026 9.84974,-22 22,-22c12.15026,0 22,9.84974 22,22c0,12.15026 -9.84974,22 -22,22c-12.15026,0 -22,-9.84974 -22,-22z" id="base 1 1 1" fill="none" stroke-width="1"></path><g fill="#000000" stroke-width="1" font-family="Roboto,sans-serif" font-weight="400" font-size="14" text-anchor="start"></g><rect x="2" y="2" width="44" height="22" fill="none" stroke-width="1"></rect><path d="M2,24v-22h44v22z" fill="none" stroke-width="1"></path><path d="M2,24v-22h44v22z" fill="none" stroke-width="1"></path><path d="M2,24v-22h44v22z" fill="none" stroke-width="1"></path><path d="M2,24v-22h44v22z" fill="none" stroke-width="1"></path></g></svg>